<svg xmlns="http://www.w3.org/2000/svg" xmlns:xlink="http://www.w3.org/1999/xlink" width="250" zoomAndPan="magnify" viewBox="0 0 187.5 187.499992" height="250" preserveAspectRatio="xMidYMid meet" version="1.0"><defs><clipPath id="e6d385d695"><path d="M 0 0 L 187 0 L 187 187 L 0 187 Z M 0 0 " clip-rule="nonzero"/></clipPath><clipPath id="eb96fb89f2"><path d="M 8.789062 0 L 178.210938 0 C 183.066406 0 187 3.933594 187 8.789062 L 187 178.210938 C 187 183.066406 183.066406 187 178.210938 187 L 8.789062 187 C 3.933594 187 0 183.066406 0 178.210938 L 0 8.789062 C 0 3.933594 3.933594 0 8.789062 0 Z M 8.789062 0 " clip-rule="nonzero"/></clipPath><clipPath id="7e247c3311"><path d="M 0 0 L 187 0 L 187 187 L 0 187 Z M 0 0 " clip-rule="nonzero"/></clipPath><clipPath id="4804c4f54b"><path d="M 8.789062 0 L 178.210938 0 C 183.066406 0 187 3.933594 187 8.789062 L 187 178.210938 C 187 183.066406 183.066406 187 178.210938 187 L 8.789062 187 C 3.933594 187 0 183.066406 0 178.210938 L 0 8.789062 C 0 3.933594 3.933594 0 8.789062 0 Z M 8.789062 0 " clip-rule="nonzero"/></clipPath><clipPath id="4fdbaf37df"><rect x="0" width="187" y="0" height="187"/></clipPath><clipPath id="d6db995dc0"><path d="M 4.382812 20 L 182.410156 20 L 182.410156 167.554688 L 4.382812 167.554688 Z M 4.382812 20 " clip-rule="nonzero"/></clipPath></defs><path fill="#ffffff" d="M 0 0 L 187 0 L 187 187 L 0 187 Z M 0 0 " fill-opacity="1" fill-rule="nonzero"/><path fill="#ffffff" d="M 0 0 L 187 0 L 187 187 L 0 187 Z M 0 0 " fill-opacity="1" fill-rule="nonzero"/><g clip-path="url(#e6d385d695)"><g clip-path="url(#eb96fb89f2)"><g transform="matrix(1, 0, 0, 1, 0, 0)"><g clip-path="url(#4fdbaf37df)"><g clip-path="url(#7e247c3311)"><g clip-path="url(#4804c4f54b)"><rect x="-41.25" width="270" fill="#2e2e2e" height="269.999988" y="-41.249998" fill-opacity="1"/></g></g></g></g></g></g><g clip-path="url(#d6db995dc0)"><path fill="#3d86cd" d="M 42.148438 21.976562 L 4.800781 21.976562 C 23.335938 46.492188 41.550781 70.546875 59.765625 94.628906 C 41.375 118.925781 23.035156 143.140625 4.40625 167.734375 L 41.683594 167.734375 C 41.933594 167.5 42.175781 167.238281 42.410156 166.914062 C 49.777344 157.019531 57.238281 147.21875 64.695312 137.390625 C 85.109375 110.421875 105.550781 83.515625 125.964844 56.582031 C 130.242188 50.933594 136.421875 48.808594 142.757812 50.902344 C 148.96875 52.960938 152.933594 58.640625 152.933594 65.445312 L 152.933594 119.097656 L 153.023438 119.066406 L 153.023438 167.734375 L 182.582031 167.734375 C 182.578125 157.023438 182.582031 146.308594 182.582031 135.609375 L 182.582031 64.730469 C 182.582031 58.703125 181.550781 52.902344 179.085938 47.4375 C 172.1875 32.269531 160.484375 22.996094 143.910156 20.878906 C 126.898438 18.691406 112.855469 24.871094 102.304688 38.445312 C 95.035156 47.808594 87.980469 57.328125 80.832031 66.789062 C 80.082031 67.753906 79.335938 68.722656 78.523438 69.816406 C 78.117188 69.347656 77.835938 69.035156 77.585938 68.722656 C 65.789062 53.179688 53.992188 37.636719 42.222656 22.0625 C 42.199219 22.027344 42.171875 22.007812 42.148438 21.976562 Z M 42.148438 21.976562 " fill-opacity="1" fill-rule="nonzero"/></g></svg>